<svg width="154" height="161" viewBox="0 0 154 161" fill="none" xmlns="http://www.w3.org/2000/svg">
<path d="M67.0904 0.156601C85.0058 -0.924422 113.44 3.67837 129.756 11.2709C140.373 16.2073 129.955 28.335 126.955 35.4039C124.437 41.3326 119.669 54.8792 121.031 60.9388C121.243 61.8763 123.54 65.8541 124.281 66.5635C125.275 67.5094 128.326 68.5609 129.693 68.7636C135.985 69.6926 139.734 63.7807 146.597 67.9402C157.975 74.8359 154.099 98.0103 139.797 96.6928C135.849 96.3297 133.607 93.2386 129.193 93.3442C112.179 93.7369 121.095 121.97 125.343 130.956C125.876 132.084 127.962 133.976 127.082 135.187C126.088 136.556 119.525 133.025 117.87 132.498C114.05 131.277 106.31 129.183 102.545 129.706C98.5121 130.268 94.3739 134.166 94.285 138.371C94.2258 141.251 96.8915 144.959 97.1835 147.657C99.1637 165.769 63.7053 164.025 69.0706 145.288C70.0988 141.69 73.1454 140.2 73.5262 135.796C73.8266 132.295 71.8633 128.634 68.7406 127.054C63.9084 124.609 51.9 126.092 46.5008 127.413C43.8478 128.064 36.2102 131.649 34.1792 130.724C30.7011 129.14 32.7152 123.87 32.8971 121.016C33.2653 115.214 33.7772 102.744 30.5487 98.0315C28.7927 95.4725 25.5854 93.8678 22.4839 93.8172C19.8393 93.7749 16.5346 96.6126 13.5389 97.0476C-3.59374 99.5474 -5.15087 68.6074 12.8068 70.554C17.9479 71.1114 20.7702 75.1146 26.5713 70.7821C32.8548 66.0906 30.4599 55.7238 29.3936 48.9293C28.0226 40.2009 25.3781 30.5308 22.9578 21.9924C22.0565 18.8127 20.5544 18.6396 22.3696 14.6491C24.8915 9.09616 37.0903 5.87843 42.8703 4.28223C50.3428 2.22153 59.3386 0.625326 67.0862 0.156601H67.0904Z" fill="white"/>
</svg>
