<svg width="163" height="134" viewBox="0 0 163 134" fill="none" xmlns="http://www.w3.org/2000/svg">
<path d="M24.9055 85.4943C27.6728 87.9393 27.859 89.8607 32.2469 91.0473C54.0466 96.9211 65.6193 62.2608 45.3555 54.7401C44.268 54.3347 42.9013 53.7604 41.7631 53.6717C38.6362 53.4225 37.426 55.0525 34.2187 52.7638C30.7405 50.2766 31.8745 46.852 33.4401 43.6849C37.2483 35.991 42.694 28.7448 46.9888 21.3128C49.6291 16.7395 52.5149 8.13356 56.9154 5.46056C58.6461 4.4091 64.3583 2.51309 66.5036 1.93879C70.9846 0.735308 83.9789 -1.16492 87.8294 0.954897C93.749 4.21486 86.6193 9.95356 85.663 13.4542C81.6263 28.1789 96.2286 37.1523 109.363 34.1499C118.38 32.0892 123.588 24.7163 122.336 15.5023C121.892 12.2381 119.666 11.8327 120.296 7.47904C120.8 3.99949 123.622 3.49699 126.715 3.95727C132.262 4.7807 147.381 9.48062 151.705 12.7955C155.184 15.46 158.137 25.3117 159.305 29.7034C160.824 35.421 162.978 46.0454 162.99 51.7841C162.999 54.5205 161.763 59.0515 158.526 59.5709C154.532 60.2127 153.618 57.8691 150.749 57.2484C123.863 51.4167 124.727 99.0958 150.838 93.2811C152.776 92.8504 155.344 90.8065 157.291 90.8277C158.695 90.8403 160.858 92.1367 161.543 93.3487C164.687 98.8931 160.727 117.064 160.037 123.997C159.88 125.564 160.274 132.557 159.216 133.317C158.158 134.077 152.294 130.897 150.707 130.344C140.945 126.953 131.48 125.488 121.248 124.234C118.997 123.959 117.897 124.897 115.202 123.127C110.662 120.15 116.48 114.049 116.865 109.627C118.985 85.3254 74.9451 84.0839 74.5939 107.575C74.5431 111.038 79.6968 118.292 72.127 119.462C67.8703 120.117 56.2257 116.147 51.3005 115.113C39.4613 112.621 25.9295 110.679 13.8787 112.427C10.0917 112.976 -2.00986 118.706 0.287748 109.838C0.757424 108.027 4.46406 101.993 5.65729 99.9995C7.93374 96.1948 12.1651 89.1934 14.8943 85.9926C17.8139 82.5637 21.6517 82.6397 24.9013 85.5112L24.9055 85.4943Z" fill="white"/>
</svg>
