<svg width="177" height="141" viewBox="0 0 177 141" fill="none" xmlns="http://www.w3.org/2000/svg">
<path d="M61.9029 127.311C59.8931 125.12 57.8536 122.911 56.6096 120.141C55.7379 118.195 54.5235 111.607 53.6434 110.855L42.5024 108.039C6.59118 95.2862 -7.0802 64.6754 3.46424 28.3429C5.19485 22.3804 7.22165 16.7092 14.8507 17.824C17.1187 18.1534 24.0411 21.9539 26.965 23.0434C36.3712 26.5567 58.6998 32.9753 68.0891 30.3445C71.5334 29.3775 74.4065 26.202 74.7534 22.638C75.3543 16.4348 70.4333 13.0903 74.9989 6.41417C83.8 -6.46522 112.556 1.39332 105.308 18.0816C103.937 21.2318 102.1 22.2664 102.714 26.4216C103.493 31.6662 107.271 34.2337 112.239 35.0698C127.501 37.6372 150.316 34.8966 164.986 29.9264C166.543 29.3986 170.085 27.2788 171.519 27.1436C171.934 27.1056 172.442 27.4308 172.497 27.7264C172.586 28.1909 168.921 35.15 168.342 36.231C165.041 42.3413 152.525 60.7652 152.161 66.1238C151.933 69.5232 152.944 73.1547 155.787 75.2197C161.034 79.0328 167.47 75.4646 172.247 80.3292C179.838 88.061 175.146 101.633 165.608 105.294C161.957 106.696 159.38 106.574 155.868 104.699C152.927 103.128 151.814 99.7623 148.806 98.6559C138.879 94.9948 134.491 103.998 130.031 110.75C127.598 114.436 125.043 118.363 122.919 122.232C118.738 129.849 118.061 137.927 107.868 139.726C92.58 142.425 72.7309 139.148 61.8945 127.316L61.9029 127.311Z" fill="white"/>
</svg>
