<svg width="171" height="147" viewBox="0 0 171 147" fill="none" xmlns="http://www.w3.org/2000/svg">
<path d="M92.3628 0.0347015C100.085 -0.421355 109.267 3.61981 110.541 12.04C111.463 18.1503 103.402 22.3815 108.344 29.4377C112.148 34.8682 116.604 33.3733 122.227 34.163C136.064 36.1054 151.449 39.509 163.25 47.2746C168.12 50.4797 172.986 55.0107 168.797 61.1126C165.996 65.1917 160.542 66.0067 156.966 69.5749C147.552 78.9748 156.277 89.7681 160.284 99.2229C164.414 108.969 168.336 121.185 168.632 131.856C168.772 136.856 167.579 142.198 162.158 144.009C158.24 145.318 147.391 146.585 143.033 146.877C138.675 147.168 133.449 145.829 131.71 141.256C128.02 131.548 126.865 123.977 120.133 115.227C113.359 106.414 103.06 101.368 95.824 93.0365C90.5433 86.9515 87.1837 77.6193 78.9961 74.7816C69.0694 71.3443 57.7803 69.8917 47.5997 66.8428C32.2104 62.2358 6.75482 50.8808 0.687117 34.695C-1.0181 30.1429 0.429002 25.405 5.26963 23.7539C16.838 19.8098 35.8324 21.9339 47.7647 24.4464C55.1526 26.0004 65.6505 30.7468 72.9664 28.3905C75.738 27.4995 78.154 25.2614 78.7168 22.3097C79.6731 17.2804 76.1865 14.4638 77.8536 9.2023C79.7619 3.19333 86.5024 0.380967 92.3628 0.0347015Z" fill="white"/>
</svg>
