<svg width="670" height="589" viewBox="0 0 670 589" fill="none" xmlns="http://www.w3.org/2000/svg">
<path d="M452.551 231.502L455.711 232.024C472.019 239.602 488.393 249.751 504.962 256.533C513.787 260.141 524.444 262.256 529.598 251.8C532.416 246.082 530.027 243.773 530.544 238.718C531.416 230.196 537.966 224.285 546.214 222.852C561.239 220.248 581.942 229.272 580.05 247.241C579.01 257.088 565.736 258.862 570.326 273.001C572.493 279.682 576.292 281.503 582.392 283.726C589.673 286.384 598.538 289.021 606.068 290.902C618.281 293.948 633.676 294.986 645.172 298.755C663.405 304.74 663.076 336.352 659.714 351.468C654.654 374.216 640.481 392.064 621.59 405.151C620.422 405.962 618.698 405.875 617.604 407.2C616.074 409.068 614.718 417.51 613.638 420.649C601.967 454.591 570.473 475.089 536.611 482.386C526.417 484.582 521.491 486.115 511.754 489.054C497.158 493.459 477.206 494.577 462.315 491.879C451.235 489.871 447.383 480.07 455.537 471.802C464.342 462.872 481.347 461.948 478.676 443.418C477.461 434.989 470.992 431.762 465.355 427.257C457.752 421.178 459.161 412.663 459.933 403.893C461.12 390.377 468.529 360.519 460.892 349.366C458.671 346.126 454.644 343.314 450.692 342.805C440.914 341.54 436.304 351.528 424.003 345.329C408.595 337.563 409.642 308.817 426.909 304.004C435.713 301.547 438.505 306.514 445.659 307.659C456.47 309.386 463.254 301.634 463.979 291.445C464.939 278.022 460.335 256.861 456.389 244.061C455.765 242.032 451.464 232.593 452.544 231.502H452.551Z" fill="#93B3D9" fill-opacity="0.3"/>
<path d="M98.4528 379.413C95.2562 375.894 92.0125 372.348 90.034 367.9C88.6477 364.775 86.7163 354.198 85.3165 352.991L67.5973 348.469C10.4829 327.993 -11.2606 278.844 5.50966 220.508C8.26208 210.934 11.4856 201.829 23.6191 203.618C27.2262 204.147 38.2359 210.249 42.8861 211.999C57.8461 217.64 93.3584 227.945 108.291 223.721C113.769 222.169 118.339 217.07 118.891 211.348C119.846 201.388 112.02 196.018 119.281 185.299C133.279 164.619 179.013 177.237 167.485 204.032C165.305 209.09 162.384 210.751 163.36 217.423C164.598 225.844 170.608 229.966 178.509 231.308C202.782 235.431 239.069 231.03 262.4 223.05C264.877 222.203 270.51 218.799 272.791 218.582C273.45 218.521 274.258 219.043 274.345 219.518C274.487 220.264 268.659 231.437 267.737 233.173C262.488 242.984 242.582 272.565 242.003 281.169C241.639 286.627 243.248 292.458 247.77 295.774C256.115 301.896 266.351 296.167 273.948 303.978C286.021 316.392 278.558 338.183 263.39 344.061C257.582 346.312 253.484 346.116 247.898 343.105C243.221 340.583 241.451 335.18 236.666 333.403C220.878 327.525 213.9 341.98 206.807 352.821C202.937 358.74 198.873 365.046 195.494 371.256C188.845 383.488 187.769 396.458 171.557 399.346C147.243 403.679 115.674 398.418 98.4393 379.42L98.4528 379.413Z" fill="#93B3D9" fill-opacity="0.3"/>
<path d="M238.35 341.138C242.758 344.985 243.055 348.008 250.044 349.875C284.77 359.118 303.205 304.578 270.926 292.744C269.193 292.106 267.016 291.202 265.203 291.063C260.222 290.671 258.294 293.236 253.185 289.634C247.645 285.72 249.451 280.332 251.945 275.348C258.011 263.241 266.686 251.839 273.527 240.144C277.733 232.948 282.33 219.406 289.34 215.2C292.097 213.545 301.196 210.562 304.613 209.658C311.751 207.764 332.451 204.774 338.584 208.11C348.014 213.24 336.657 222.27 335.133 227.778C328.703 250.949 351.964 265.069 372.885 260.344C387.249 257.102 395.546 245.5 393.551 231.001C392.843 225.865 389.298 225.227 390.302 218.376C391.104 212.901 395.6 212.11 400.527 212.834C409.364 214.13 433.447 221.526 440.335 226.742C445.876 230.935 450.58 246.437 452.441 253.347C454.86 262.344 458.291 279.062 458.311 288.093C458.325 292.398 456.357 299.528 451.2 300.346C444.838 301.356 443.382 297.668 438.812 296.691C395.984 287.515 397.359 362.54 438.953 353.39C442.04 352.713 446.132 349.497 449.232 349.53C451.47 349.55 454.914 351.59 456.006 353.497C461.014 362.221 454.705 390.814 453.607 401.724C453.357 404.189 453.984 415.193 452.299 416.389C450.614 417.585 441.272 412.582 438.744 411.711C423.195 406.376 408.117 404.07 391.819 402.096C388.233 401.664 386.48 403.14 382.187 400.355C374.955 395.671 384.222 386.069 384.836 379.112C388.213 340.872 318.06 338.918 317.501 375.883C317.42 381.331 325.629 392.747 313.571 394.588C306.79 395.618 288.241 389.372 280.396 387.744C261.536 383.823 239.981 380.767 220.785 383.518C214.752 384.381 195.475 393.398 199.135 379.444C199.883 376.594 205.788 367.099 207.689 363.962C211.315 357.975 218.055 346.958 222.402 341.922C227.053 336.526 233.167 336.646 238.343 341.164L238.35 341.138Z" fill="#93B3D9" fill-opacity="0.3"/>
<path d="M347.794 357.927C360.073 357.213 374.672 363.547 376.698 376.745C378.164 386.323 365.348 392.955 373.206 404.016C379.254 412.528 386.339 410.185 395.28 411.423C417.28 414.467 441.743 419.802 460.507 431.975C468.251 436.999 475.988 444.101 469.328 453.665C464.874 460.059 456.202 461.337 450.516 466.93C435.547 481.664 449.42 498.582 455.791 513.402C462.358 528.679 468.594 547.828 469.065 564.554C469.287 572.391 467.39 580.764 458.772 583.604C452.542 585.656 435.291 587.641 428.361 588.098C421.432 588.555 413.123 586.457 410.357 579.288C404.491 564.071 402.654 552.203 391.95 538.488C381.178 524.674 364.803 516.765 353.298 503.705C344.901 494.167 339.559 479.539 326.541 475.091C310.757 469.703 292.807 467.426 276.62 462.647C252.15 455.426 211.675 437.627 202.027 412.257C199.316 405.121 201.617 397.695 209.313 395.107C227.708 388.924 257.909 392.254 276.882 396.192C288.629 398.628 305.321 406.068 316.954 402.374C321.36 400.978 325.202 397.47 326.097 392.843C327.617 384.96 322.074 380.545 324.724 372.297C327.759 362.878 338.476 358.47 347.794 357.927Z" fill="#93B3D9" fill-opacity="0.3"/>
<path d="M465.023 31.7452C472.633 30.627 490.723 36.6041 498.642 39.2532C558.278 59.1616 614.656 101.847 636.102 163.496C637.632 167.895 638.295 173.872 640.239 177.939C641.979 181.573 647.948 186.985 650.64 190.692C664.613 209.948 672.315 239.721 669.314 263.45C668.29 271.544 665.762 283.851 658.848 288.783C653.851 292.344 649.274 291.266 643.653 290.294C630.278 287.977 613.888 284.203 600.814 280.469C596.842 279.338 584.129 275.497 581.45 273.474C572.789 266.924 581.91 260.847 585.213 255.416C597.932 234.523 575.711 214.807 555.487 214.574C543.957 214.441 529.708 221.111 527.718 233.744C526.766 239.761 530.64 245.565 524.908 250.198C521.329 253.086 517.521 251.722 513.778 250.218C497.513 243.688 476.809 232.273 461.228 223.613C452.186 218.588 448.423 216.571 443.604 206.867C438.311 196.21 429.341 169.366 434.391 158.444C436.466 153.951 441.831 152.952 446.118 154.397C449.054 155.382 452.586 158.177 455.699 158.657C487.027 163.509 497.428 111.745 469.127 99.118C459.842 94.9779 455.285 99.9566 447.629 101.295C442.678 102.16 436.873 99.6704 435.783 94.3123C433.741 84.2283 442.586 62.3232 446.985 52.7251C450.866 44.2586 454.95 33.2228 465.023 31.7452Z" fill="#93B3D9" fill-opacity="0.3"/>
<path d="M341.966 0.246976C370.737 -1.4579 416.4 5.80115 442.603 17.7753C459.652 25.5604 442.922 44.687 438.104 55.8353C434.061 65.1855 426.403 86.5498 428.591 96.1064C428.931 97.5849 432.62 103.858 433.81 104.977C435.406 106.469 440.306 108.127 442.501 108.447C452.605 109.912 458.626 100.588 469.647 107.148C487.92 118.023 481.695 154.572 458.727 152.494C452.388 151.921 448.786 147.046 441.699 147.213C414.375 147.832 428.693 192.359 435.515 206.531C436.371 208.309 439.721 211.292 438.308 213.204C436.711 215.361 426.172 209.794 423.515 208.961C417.379 207.037 404.95 203.734 398.903 204.559C392.427 205.445 385.781 211.592 385.638 218.225C385.543 222.767 389.824 228.614 390.293 232.87C393.473 261.433 336.53 258.683 345.146 229.134C346.797 223.46 351.69 221.109 352.301 214.163C352.784 208.642 349.631 202.868 344.616 200.377C336.856 196.521 317.571 198.859 308.901 200.943C304.64 201.969 292.375 207.623 289.113 206.164C283.527 203.667 286.762 195.356 287.054 190.854C287.645 181.703 288.467 162.037 283.283 154.605C280.463 150.569 275.312 148.039 270.331 147.959C266.084 147.892 260.777 152.367 255.966 153.053C228.452 156.996 225.952 108.2 254.79 111.271C263.047 112.15 267.579 118.463 276.895 111.63C286.986 104.231 283.14 87.8817 281.428 77.1663C279.226 63.4007 274.979 48.1501 271.092 34.6842C269.645 29.6694 267.232 29.3964 270.148 23.103C274.198 14.3455 293.788 9.27084 303.07 6.75349C315.071 3.50356 329.517 0.9862 341.959 0.246976H341.966Z" fill="#93B3D9" fill-opacity="0.3"/>
<path d="M27.1523 164.679C27.595 163.979 27.3267 162.173 27.7963 160.973C40.8772 127.175 65.7845 102.134 99.7748 89.1905C102.411 88.1907 105.839 88.3173 108.469 86.4978C111.688 84.2783 116.834 74.834 119.919 71.2148C141.07 46.3742 182.922 27.6921 214.88 22.2668C227.733 20.0873 257.47 16.7548 263.964 31.3579C268.847 49.1602 274.502 66.8559 276.783 85.2714C277.165 88.3373 278.386 98.5948 277.903 100.868C276.696 106.613 270.531 109.839 265.01 108.292C257.309 106.133 255.545 102.947 245.858 105.706C221.783 112.558 223.527 155.968 251.191 160.013C260.455 161.366 265.057 154.181 271.832 154.801C282.21 155.754 281.727 173.09 281.586 180.522C281.472 186.747 280.888 194.758 280.144 201.083C278.748 212.86 268.773 215.82 258.912 218.646C235.414 225.377 211.526 227.037 187.242 224.884C186.203 224.791 185.243 225.524 184.137 225.337C181.701 224.937 176.805 222.225 175.288 220.105C170.157 212.927 178.897 207.942 179.588 201.15C183.191 165.772 129.707 159.28 116.257 185.54C111.635 194.558 115.606 199.064 117.055 206.642C118.356 213.427 114.66 217.353 108.073 218.066C94.1735 219.565 64.4496 211.374 50.8388 206.455C41.4541 203.063 24.8246 197.977 22.2755 187.513C21.1753 182.994 23.6037 170.357 25.4484 165.945C25.8375 165.012 26.9242 165.032 27.1523 164.672V164.679Z" fill="#93B3D9" fill-opacity="0.3"/>
</svg>
