<svg width="681" height="880" viewBox="0 0 681 880" fill="none" xmlns="http://www.w3.org/2000/svg">
<path d="M452.551 522.502L455.711 523.024C472.019 530.602 488.393 540.751 504.962 547.533C513.787 551.141 524.444 553.256 529.598 542.8C532.416 537.082 530.027 534.773 530.544 529.718C531.416 521.196 537.966 515.285 546.214 513.852C561.239 511.248 581.942 520.272 580.05 538.241C579.01 548.088 565.736 549.862 570.326 564.001C572.493 570.682 576.292 572.503 582.392 574.726C589.673 577.384 598.538 580.021 606.068 581.902C618.281 584.948 633.676 585.986 645.172 589.755C663.405 595.74 663.076 627.352 659.714 642.468C654.654 665.216 640.481 683.064 621.59 696.151C620.422 696.962 618.698 696.875 617.604 698.2C616.074 700.068 614.718 708.51 613.638 711.649C601.967 745.591 570.473 766.089 536.611 773.386C526.417 775.582 521.491 777.115 511.754 780.054C497.158 784.459 477.206 785.577 462.315 782.879C451.235 780.871 447.383 771.07 455.537 762.802C464.342 753.872 481.347 752.948 478.676 734.418C477.461 725.989 470.992 722.762 465.355 718.257C457.752 712.178 459.161 703.663 459.933 694.893C461.12 681.377 468.529 651.519 460.892 640.366C458.671 637.126 454.644 634.314 450.692 633.805C440.914 632.54 436.304 642.528 424.003 636.329C408.595 628.563 409.642 599.817 426.909 595.004C435.713 592.547 438.505 597.514 445.659 598.659C456.47 600.386 463.254 592.634 463.979 582.445C464.939 569.022 460.335 547.861 456.389 535.061C455.765 533.032 451.464 523.593 452.544 522.502H452.551Z" fill="#93B3D9" fill-opacity="0.3"/>
<path d="M98.4528 670.413C95.2562 666.894 92.0125 663.348 90.034 658.9C88.6477 655.775 86.7163 645.198 85.3165 643.991L67.5973 639.469C10.4829 618.993 -11.2606 569.844 5.50966 511.508C8.26208 501.934 11.4856 492.829 23.6191 494.618C27.2262 495.147 38.2359 501.249 42.8861 502.999C57.8461 508.64 93.3584 518.945 108.291 514.721C113.769 513.169 118.339 508.07 118.891 502.348C119.846 492.388 112.02 487.018 119.281 476.299C133.279 455.619 179.013 468.237 167.485 495.032C165.305 500.09 162.384 501.751 163.36 508.423C164.598 516.844 170.608 520.966 178.509 522.308C202.782 526.431 239.069 522.03 262.4 514.05C264.877 513.203 270.51 509.799 272.791 509.582C273.45 509.521 274.258 510.043 274.345 510.518C274.487 511.264 268.659 522.437 267.737 524.173C262.488 533.984 242.582 563.565 242.003 572.169C241.639 577.627 243.248 583.458 247.77 586.774C256.115 592.896 266.351 587.167 273.948 594.978C286.021 607.392 278.558 629.183 263.39 635.061C257.582 637.312 253.484 637.116 247.898 634.105C243.221 631.583 241.451 626.18 236.666 624.403C220.878 618.525 213.9 632.98 206.807 643.821C202.937 649.74 198.873 656.046 195.494 662.256C188.845 674.488 187.769 687.458 171.557 690.346C147.243 694.679 115.674 689.418 98.4393 670.42L98.4528 670.413Z" fill="#93B3D9" fill-opacity="0.3"/>
<path d="M238.35 632.138C242.758 635.985 243.055 639.008 250.044 640.875C284.77 650.118 303.205 595.578 270.926 583.744C269.193 583.106 267.016 582.202 265.203 582.063C260.222 581.671 258.294 584.236 253.185 580.634C247.645 576.72 249.451 571.332 251.945 566.348C258.011 554.241 266.686 542.839 273.527 531.144C277.733 523.948 282.33 510.406 289.34 506.2C292.097 504.545 301.196 501.562 304.613 500.658C311.751 498.764 332.451 495.774 338.584 499.11C348.014 504.24 336.657 513.27 335.133 518.778C328.703 541.949 351.964 556.069 372.885 551.344C387.249 548.102 395.546 536.5 393.551 522.001C392.843 516.865 389.298 516.227 390.302 509.376C391.104 503.901 395.6 503.11 400.527 503.834C409.364 505.13 433.447 512.526 440.335 517.742C445.876 521.935 450.58 537.437 452.441 544.347C454.86 553.344 458.291 570.062 458.311 579.093C458.325 583.398 456.357 590.528 451.2 591.346C444.838 592.356 443.382 588.668 438.812 587.691C395.984 578.515 397.359 653.54 438.953 644.39C442.04 643.713 446.132 640.497 449.232 640.53C451.47 640.55 454.914 642.59 456.006 644.497C461.014 653.221 454.705 681.814 453.607 692.724C453.357 695.189 453.984 706.193 452.299 707.389C450.614 708.585 441.272 703.582 438.744 702.711C423.195 697.376 408.117 695.07 391.819 693.096C388.233 692.664 386.48 694.14 382.187 691.355C374.955 686.671 384.222 677.069 384.836 670.112C388.213 631.872 318.06 629.918 317.501 666.883C317.42 672.331 325.629 683.747 313.571 685.588C306.79 686.618 288.241 680.372 280.396 678.744C261.536 674.823 239.981 671.767 220.785 674.518C214.752 675.381 195.475 684.398 199.135 670.444C199.883 667.594 205.788 658.099 207.689 654.962C211.315 648.975 218.055 637.958 222.402 632.922C227.053 627.526 233.167 627.646 238.343 632.164L238.35 632.138Z" fill="#93B3D9" fill-opacity="0.3"/>
<path d="M347.794 648.927C360.073 648.213 374.672 654.547 376.698 667.745C378.164 677.323 365.348 683.955 373.206 695.016C379.254 703.528 386.339 701.185 395.28 702.423C417.28 705.467 441.743 710.802 460.507 722.975C468.251 727.999 475.988 735.101 469.328 744.665C464.874 751.059 456.202 752.337 450.516 757.93C435.547 772.664 449.42 789.582 455.791 804.402C462.358 819.679 468.594 838.828 469.065 855.554C469.287 863.391 467.39 871.764 458.772 874.604C452.542 876.656 435.291 878.641 428.361 879.098C421.432 879.555 413.123 877.457 410.357 870.288C404.491 855.071 402.654 843.203 391.95 829.488C381.178 815.674 364.803 807.765 353.298 794.705C344.901 785.167 339.559 770.539 326.541 766.091C310.757 760.703 292.807 758.426 276.62 753.647C252.15 746.426 211.675 728.627 202.027 703.257C199.316 696.121 201.617 688.695 209.313 686.107C227.708 679.924 257.909 683.254 276.882 687.192C288.629 689.628 305.321 697.068 316.954 693.374C321.36 691.978 325.202 688.47 326.097 683.843C327.617 675.96 322.074 671.545 324.724 663.297C327.759 653.879 338.476 649.47 347.794 648.927Z" fill="#93B3D9" fill-opacity="0.3"/>
<path d="M476.023 31.7452C483.633 30.627 501.723 36.6041 509.642 39.2532C569.278 59.1616 625.656 101.847 647.102 163.496C648.632 167.895 649.295 173.872 651.239 177.939C652.979 181.573 658.948 186.985 661.64 190.692C675.613 209.948 683.315 239.721 680.314 263.45C679.29 271.544 676.762 283.851 669.848 288.783C664.851 292.344 660.274 291.266 654.653 290.294C641.278 287.977 624.888 284.203 611.814 280.469C607.842 279.338 595.129 275.497 592.45 273.474C583.789 266.924 592.91 260.847 596.213 255.416C608.932 234.523 586.711 214.807 566.487 214.574C554.957 214.441 540.708 221.111 538.718 233.744C537.766 239.761 541.64 245.565 535.908 250.198C532.329 253.086 528.521 251.722 524.778 250.218C508.513 243.688 487.809 232.273 472.228 223.613C463.186 218.588 459.423 216.571 454.604 206.867C449.311 196.21 440.341 169.366 445.391 158.444C447.466 153.951 452.831 152.952 457.118 154.397C460.054 155.382 463.586 158.177 466.699 158.657C498.027 163.509 508.428 111.745 480.127 99.118C470.842 94.9779 466.285 99.9566 458.629 101.295C453.678 102.16 447.873 99.6704 446.783 94.3123C444.741 84.2283 453.586 62.3232 457.985 52.7251C461.866 44.2586 465.95 33.2228 476.023 31.7452Z" fill="#93B3D9" fill-opacity="0.3"/>
<path d="M352.966 0.246976C381.737 -1.4579 427.4 5.80115 453.603 17.7753C470.652 25.5604 453.922 44.687 449.104 55.8353C445.061 65.1855 437.403 86.5498 439.591 96.1064C439.931 97.5849 443.62 103.858 444.81 104.977C446.406 106.469 451.306 108.127 453.501 108.447C463.605 109.912 469.626 100.588 480.647 107.148C498.92 118.023 492.695 154.572 469.727 152.494C463.388 151.921 459.786 147.046 452.699 147.213C425.375 147.832 439.693 192.359 446.515 206.531C447.371 208.309 450.721 211.292 449.308 213.204C447.711 215.361 437.172 209.794 434.515 208.961C428.379 207.037 415.95 203.734 409.903 204.559C403.427 205.445 396.781 211.592 396.638 218.225C396.543 222.767 400.824 228.614 401.293 232.87C404.473 261.433 347.53 258.683 356.146 229.134C357.797 223.46 362.69 221.109 363.301 214.163C363.784 208.642 360.631 202.868 355.616 200.377C347.856 196.521 328.571 198.859 319.901 200.943C315.64 201.969 303.375 207.623 300.113 206.164C294.527 203.667 297.762 195.356 298.054 190.854C298.645 181.703 299.467 162.037 294.283 154.605C291.463 150.569 286.312 148.039 281.331 147.959C277.084 147.892 271.777 152.367 266.966 153.053C239.452 156.996 236.952 108.2 265.79 111.271C274.047 112.15 278.579 118.463 287.895 111.63C297.986 104.231 294.14 87.8817 292.428 77.1663C290.226 63.4007 285.979 48.1501 282.092 34.6842C280.645 29.6694 278.232 29.3964 281.148 23.103C285.198 14.3455 304.788 9.27084 314.07 6.75349C326.071 3.50356 340.517 0.9862 352.959 0.246976H352.966Z" fill="#93B3D9" fill-opacity="0.3"/>
<path d="M38.1523 164.679C38.595 163.979 38.3267 162.173 38.7963 160.973C51.8772 127.175 76.7845 102.134 110.775 89.1905C113.411 88.1907 116.839 88.3173 119.469 86.4978C122.688 84.2783 127.834 74.834 130.919 71.2148C152.07 46.3742 193.922 27.6921 225.88 22.2668C238.733 20.0873 268.47 16.7548 274.964 31.3579C279.847 49.1602 285.502 66.8559 287.783 85.2714C288.165 88.3373 289.386 98.5948 288.903 100.868C287.696 106.613 281.531 109.839 276.01 108.292C268.309 106.133 266.545 102.947 256.858 105.706C232.783 112.558 234.527 155.968 262.191 160.013C271.455 161.366 276.057 154.181 282.832 154.801C293.21 155.754 292.727 173.09 292.586 180.522C292.472 186.747 291.888 194.758 291.144 201.083C289.748 212.86 279.773 215.82 269.912 218.646C246.414 225.377 222.526 227.037 198.242 224.884C197.203 224.791 196.243 225.524 195.137 225.337C192.701 224.937 187.805 222.225 186.288 220.105C181.157 212.927 189.897 207.942 190.588 201.15C194.191 165.772 140.707 159.28 127.257 185.54C122.635 194.558 126.606 199.064 128.055 206.642C129.356 213.427 125.66 217.353 119.073 218.066C105.173 219.565 75.4496 211.374 61.8388 206.455C52.4541 203.063 35.8246 197.977 33.2755 187.513C32.1753 182.994 34.6037 170.357 36.4484 165.945C36.8375 165.012 37.9242 165.032 38.1523 164.672V164.679Z" fill="#93B3D9" fill-opacity="0.3"/>
</svg>
