<svg width="157" height="171" viewBox="0 0 157 171" fill="none" xmlns="http://www.w3.org/2000/svg">
<path d="M24.838 5.73411L26.831 6.06349C37.1131 10.8436 47.4375 17.2453 57.8846 21.523C63.4488 23.799 70.1681 25.1334 73.4178 18.5375C75.1949 14.9313 73.6886 13.4744 74.0144 10.2862C74.5645 4.91068 78.6942 1.182 83.8945 0.278327C93.3684 -1.36432 106.422 4.32794 105.229 15.6618C104.573 21.8735 96.2034 22.9925 99.0976 31.9109C100.464 36.1252 102.859 37.2738 106.706 38.6758C111.297 40.3522 116.886 42.016 121.634 43.2026C129.335 45.1239 139.041 45.7785 146.289 48.1559C157.786 51.931 157.579 71.8708 155.459 81.4058C152.268 95.7547 143.332 107.013 131.421 115.268C130.684 115.779 129.597 115.724 128.907 116.56C127.943 117.738 127.088 123.063 126.407 125.044C119.048 146.453 99.1907 159.383 77.8395 163.986C71.4121 165.371 68.3063 166.338 62.1667 168.192C52.9636 170.97 40.3839 171.675 30.9946 169.974C24.0087 168.707 21.5799 162.525 26.721 157.31C32.2725 151.677 42.9946 151.094 41.3106 139.405C40.5447 134.089 36.4657 132.053 32.9114 129.212C28.1173 125.377 29.0059 120.006 29.4925 114.474C30.2414 105.948 34.9128 87.1149 30.0976 80.0798C28.697 78.036 26.1582 76.2625 23.666 75.9416C17.5009 75.1434 14.594 81.4438 6.83804 77.5335C-2.87706 72.6351 -2.21699 54.5026 8.67018 51.4665C14.2217 49.9167 15.9819 53.05 20.4925 53.7721C27.3091 54.8616 31.587 49.9716 32.044 43.5446C32.649 35.078 29.7464 21.7299 27.2584 13.656C26.8648 12.3765 24.1526 6.42242 24.8338 5.73411H24.838Z" fill="#673009"/>
</svg>
