<svg width="164" height="131" viewBox="0 0 164 131" fill="none" xmlns="http://www.w3.org/2000/svg">
<path d="M3.24991 91.4613C3.52918 91.0179 3.35993 89.8735 3.65612 89.1134C11.9072 67.6999 27.6181 51.835 49.0581 43.6344C50.721 43.001 52.8832 43.0813 54.5419 41.9284C56.5729 40.5223 59.8184 34.5386 61.7648 32.2457C75.1061 16.5075 101.505 4.67113 121.663 1.23382C129.77 -0.147022 148.528 -2.25839 152.624 6.99365C155.704 18.2726 159.271 29.484 160.71 41.1515C160.951 43.0939 161.721 49.5927 161.416 51.0327C160.655 54.6727 156.766 56.7165 153.284 55.7368C148.426 54.3687 147.314 52.3502 141.203 54.0984C126.017 58.4394 127.117 85.9422 144.567 88.5054C150.411 89.3626 153.314 84.8105 157.587 85.2032C164.133 85.807 163.828 96.7904 163.739 101.499C163.668 105.443 163.299 110.519 162.83 114.526C161.95 121.988 155.658 123.862 149.438 125.653C134.615 129.918 119.548 130.969 104.23 129.605C103.574 129.546 102.969 130.011 102.271 129.893C100.735 129.639 97.6463 127.92 96.69 126.578C93.4531 122.03 98.9665 118.871 99.4023 114.568C101.675 92.1538 67.9383 88.0409 59.4545 104.678C56.5391 110.392 59.044 113.246 59.958 118.048C60.7789 122.346 58.4474 124.834 54.2923 125.285C45.525 126.236 26.776 121.046 18.1907 117.929C12.2711 115.78 1.78165 112.558 0.173747 105.928C-0.520189 103.065 1.01155 95.0591 2.17516 92.2636C2.42058 91.6724 3.10605 91.6851 3.24991 91.4571V91.4613Z" fill="#E15A0C"/>
</svg>
