<svg width="153" height="165" viewBox="0 0 153 165" fill="none" xmlns="http://www.w3.org/2000/svg">
<path d="M20.6996 0.087407C25.6037 -0.622015 37.261 3.17001 42.364 4.85067C80.7928 17.4809 117.123 44.5614 130.942 83.6725C131.928 86.4637 132.356 90.2558 133.608 92.8359C134.729 95.1415 138.576 98.5746 140.31 100.927C149.315 113.143 154.278 132.031 152.344 147.086C151.684 152.22 150.055 160.028 145.6 163.157C142.38 165.416 139.43 164.732 135.808 164.116C127.189 162.646 116.628 160.252 108.203 157.883C105.643 157.165 97.4514 154.729 95.7251 153.445C90.144 149.29 96.0212 145.434 98.1496 141.989C106.346 128.733 92.0269 116.226 78.9945 116.078C71.5643 115.993 62.3823 120.225 61.1002 128.239C60.4867 132.057 62.9832 135.739 59.2892 138.678C56.9832 140.511 54.529 139.645 52.1171 138.691C41.6362 134.548 28.2948 127.306 18.2539 121.812C12.4274 118.624 10.0029 117.345 6.89708 111.188C3.48664 104.427 -2.29335 87.397 0.960529 80.4674C2.29762 77.6171 5.75463 76.9837 8.51768 77.9C10.4091 78.525 12.6855 80.2985 14.6912 80.6026C34.8788 83.6809 41.5812 50.8406 23.3442 42.8301C17.3611 40.2035 14.4246 43.3621 9.49087 44.2109C6.30046 44.7599 2.55996 43.1806 1.85757 39.7812C0.541627 33.3838 6.24121 19.4867 9.07619 13.3975C11.5769 8.02617 14.2088 1.02486 20.6996 0.087407Z" fill="#1B2550"/>
</svg>
