<svg width="287" height="218" viewBox="0 0 287 218" fill="none" xmlns="http://www.w3.org/2000/svg">
<g filter="url(#filter0_i_351_229)">
<path d="M192.448 102.026L193.848 102.258C201.071 105.614 208.324 110.11 215.663 113.113C219.572 114.712 224.292 115.649 226.575 111.017C227.823 108.485 226.765 107.462 226.994 105.223C227.38 101.448 230.281 98.83 233.935 98.1954C240.59 97.042 249.76 101.039 248.922 108.998C248.461 113.36 242.581 114.145 244.615 120.408C245.575 123.367 247.257 124.174 249.959 125.158C253.184 126.335 257.111 127.504 260.446 128.337C265.856 129.686 272.674 130.146 277.766 131.815C285.842 134.466 285.696 148.468 284.207 155.163C281.966 165.239 275.688 173.144 267.321 178.941C266.804 179.3 266.04 179.261 265.555 179.849C264.878 180.676 264.277 184.415 263.799 185.806C258.63 200.839 244.68 209.919 229.681 213.151C225.166 214.124 222.984 214.803 218.671 216.104C212.206 218.055 203.369 218.551 196.773 217.356C191.866 216.466 190.16 212.125 193.771 208.463C197.671 204.507 205.203 204.098 204.02 195.89C203.482 192.157 200.617 190.728 198.12 188.732C194.752 186.04 195.376 182.268 195.718 178.384C196.244 172.397 199.526 159.172 196.143 154.232C195.159 152.797 193.376 151.552 191.625 151.326C187.294 150.766 185.252 155.19 179.804 152.444C172.979 149.004 173.443 136.272 181.091 134.14C184.99 133.052 186.227 135.252 189.396 135.759C194.184 136.524 197.189 133.09 197.51 128.577C197.935 122.632 195.896 113.259 194.149 107.589C193.872 106.691 191.967 102.51 192.445 102.026H192.448Z" fill="white"/>
<path d="M196.228 14.061C199.599 13.5657 207.612 16.2132 211.119 17.3866C237.533 26.2046 262.505 45.1112 272.004 72.4172C272.682 74.366 272.975 77.0134 273.836 78.8148C274.607 80.4245 277.251 82.8213 278.443 84.4635C284.632 92.9925 288.044 106.18 286.715 116.69C286.261 120.275 285.141 125.726 282.079 127.911C279.866 129.488 277.838 129.01 275.349 128.58C269.424 127.554 262.165 125.882 256.374 124.228C254.615 123.727 248.984 122.026 247.797 121.13C243.961 118.229 248.001 115.537 249.464 113.132C255.097 103.877 245.255 95.1447 236.297 95.0415C231.19 94.9826 224.879 97.9366 223.998 103.532C223.576 106.197 225.292 108.768 222.753 110.82C221.168 112.1 219.481 111.495 217.823 110.829C210.619 107.937 201.449 102.881 194.547 99.0452C190.542 96.8193 188.876 95.926 186.741 91.6275C184.397 86.9075 180.424 75.0175 182.66 70.1796C183.579 68.1895 185.955 67.7473 187.855 68.3871C189.155 68.8234 190.719 70.0616 192.098 70.2739C205.974 72.4231 210.581 49.4952 198.046 43.9025C193.933 42.0687 191.915 44.2739 188.524 44.8665C186.331 45.2498 183.76 44.1472 183.277 41.7739C182.372 37.3074 186.29 27.6049 188.239 23.3537C189.957 19.6036 191.767 14.7155 196.228 14.061Z" fill="white"/>
<path d="M141.722 0.109393C154.466 -0.645749 174.692 2.5695 186.297 7.8732C193.849 11.3215 186.439 19.7932 184.305 24.7312C182.514 28.8726 179.122 38.3355 180.091 42.5684C180.242 43.2233 181.876 46.002 182.403 46.4975C183.11 47.1583 185.28 47.8928 186.252 48.0344C190.728 48.6833 193.394 44.5536 198.276 47.4592C206.37 52.2761 203.613 68.4645 193.44 67.5442C190.631 67.2905 189.036 65.1313 185.897 65.205C173.795 65.4793 180.136 85.2015 183.158 91.4786C183.537 92.2662 185.021 93.5877 184.395 94.4343C183.688 95.39 179.02 92.924 177.843 92.5553C175.125 91.7028 169.62 90.2397 166.941 90.6055C164.073 90.9978 161.129 93.7205 161.066 96.6584C161.024 98.6702 162.92 101.26 163.128 103.145C164.536 115.797 139.314 114.578 143.131 101.49C143.862 98.977 146.029 97.9357 146.3 94.8591C146.514 92.4137 145.117 89.8563 142.896 88.753C139.459 87.0451 130.917 88.0805 127.077 89.0038C125.19 89.458 119.757 91.9624 118.312 91.3164C115.838 90.2102 117.271 86.5289 117.4 84.5349C117.662 80.4819 118.026 71.7712 115.73 68.4792C114.481 66.6917 112.199 65.5708 109.993 65.5354C108.112 65.5059 105.761 67.4881 103.63 67.792C91.4437 69.5382 90.3361 47.9252 103.11 49.2851C106.767 49.6744 108.774 52.4708 112.901 49.4444C117.37 46.1672 115.667 38.9255 114.908 34.1793C113.933 28.0821 112.052 21.3271 110.33 15.3627C109.689 13.1415 108.621 13.0206 109.912 10.233C111.706 6.35406 120.383 4.10634 124.494 2.99132C129.81 1.55183 136.208 0.436818 141.719 0.109393H141.722Z" fill="white"/>
<path d="M2.2821 72.9411C2.4782 72.6312 2.35935 71.8311 2.56734 71.2998C8.36127 56.3294 19.3935 45.2382 34.4488 39.5051C35.6165 39.0623 37.1348 39.1184 38.2995 38.3124C39.7257 37.3294 42.0047 33.1462 43.3714 31.5432C52.7398 20.5405 71.2774 12.2656 85.4324 9.86257C91.1253 8.89722 104.297 7.42114 107.173 13.8893C109.336 21.7745 111.841 29.6124 112.851 37.7692C113.02 39.1272 113.561 43.6706 113.347 44.6773C112.812 47.222 110.082 48.6509 107.636 47.966C104.225 47.0095 103.444 45.5983 99.1536 46.8205C88.4898 49.8553 89.2623 69.0827 101.516 70.8746C105.619 71.4739 107.657 68.2915 110.658 68.5661C115.255 68.9882 115.041 76.6668 114.978 79.9584C114.928 82.7157 114.669 86.2642 114.34 89.0658C113.722 94.2822 109.303 95.593 104.936 96.8447C94.5273 99.8264 83.9467 100.561 73.1908 99.6079C72.7303 99.5666 72.3054 99.8913 71.8152 99.8087C70.7366 99.6315 68.5676 98.43 67.8961 97.4912C65.6231 94.3118 69.4946 92.1035 69.8007 89.0953C71.3962 73.4253 47.7065 70.5499 41.7491 82.1814C39.7019 86.1756 41.4609 88.1713 42.1027 91.5279C42.6791 94.5332 41.042 96.272 38.1242 96.5879C31.9678 97.2521 18.8022 93.6239 12.7736 91.4452C8.61679 89.9426 1.25108 87.6901 0.122006 83.0552C-0.365278 81.0537 0.710313 75.4564 1.5274 73.5021C1.69974 73.0888 2.18108 73.0976 2.2821 72.9382V72.9411Z" fill="white"/>
</g>
<defs>
<filter id="filter0_i_351_229" x="0" y="0" width="289" height="220" filterUnits="userSpaceOnUse" color-interpolation-filters="sRGB">
<feFlood flood-opacity="0" result="BackgroundImageFix"/>
<feBlend mode="normal" in="SourceGraphic" in2="BackgroundImageFix" result="shape"/>
<feColorMatrix in="SourceAlpha" type="matrix" values="0 0 0 0 0 0 0 0 0 0 0 0 0 0 0 0 0 0 127 0" result="hardAlpha"/>
<feOffset dx="3" dy="3"/>
<feGaussianBlur stdDeviation="1"/>
<feComposite in2="hardAlpha" operator="arithmetic" k2="-1" k3="1"/>
<feColorMatrix type="matrix" values="0 0 0 0 0 0 0 0 0 0 0 0 0 0 0 0 0 0 0.25 0"/>
<feBlend mode="normal" in2="shape" result="effect1_innerShadow_351_229"/>
</filter>
</defs>
</svg>
