<svg width="73" height="72" viewBox="0 0 73 72" fill="none" xmlns="http://www.w3.org/2000/svg">
<path d="M39.7256 6.75016C38.87 5.90654 37.7098 5.43262 36.5 5.43262C35.2901 5.43262 34.1299 5.90654 33.2743 6.75016L2.94733 36.6572C2.73523 36.8664 2.56698 37.1147 2.45219 37.388C2.3374 37.6614 2.27832 37.9543 2.27832 38.2502C2.27832 38.546 2.3374 38.839 2.45219 39.1123C2.56698 39.3856 2.73523 39.634 2.94733 39.8432C3.37568 40.2656 3.95666 40.503 4.56245 40.503C4.86241 40.503 5.15943 40.4447 5.43655 40.3315C5.71367 40.2183 5.96548 40.0524 6.17758 39.8432L36.5 9.93166L66.8223 39.8432C67.2507 40.2656 67.8317 40.503 68.4375 40.503C69.0432 40.503 69.6242 40.2656 70.0526 39.8432C70.4809 39.4207 70.7216 38.8476 70.7216 38.2502C70.7216 37.6527 70.4809 37.0796 70.0526 36.6572L59.3125 26.0687V11.2502C59.3125 10.6534 59.0721 10.0811 58.6443 9.65917C58.2165 9.23721 57.6362 9.00016 57.0312 9.00016H52.4687C51.8637 9.00016 51.2834 9.23721 50.8556 9.65917C50.4278 10.0811 50.1875 10.6534 50.1875 11.2502V17.0687L39.7256 6.75016Z" fill="#DA2328"/>
<path d="M36.5 14.8188L63.875 41.8188V60.7503C63.875 62.5406 63.154 64.2574 61.8705 65.5233C60.5871 66.7892 58.8463 67.5003 57.0312 67.5003H15.9688C14.1537 67.5003 12.4129 66.7892 11.1295 65.5233C9.84604 64.2574 9.125 62.5406 9.125 60.7503V41.8188L36.5 14.8188Z" fill="#DA2328"/>
</svg>
