<svg width="34" height="49" viewBox="0 0 34 49" fill="none" xmlns="http://www.w3.org/2000/svg">
<path d="M16.9167 22.9583C15.3143 22.9583 13.7776 22.3218 12.6446 21.1888C11.5115 20.0557 10.875 18.519 10.875 16.9167C10.875 15.3143 11.5115 13.7776 12.6446 12.6446C13.7776 11.5115 15.3143 10.875 16.9167 10.875C18.519 10.875 20.0557 11.5115 21.1888 12.6446C22.3218 13.7776 22.9583 15.3143 22.9583 16.9167C22.9583 17.7101 22.8021 18.4957 22.4984 19.2287C22.1948 19.9617 21.7498 20.6277 21.1888 21.1888C20.6277 21.7498 19.9617 22.1948 19.2287 22.4984C18.4957 22.8021 17.7101 22.9583 16.9167 22.9583ZM16.9167 0C12.4301 0 8.12727 1.78229 4.95478 4.95478C1.78229 8.12727 0 12.4301 0 16.9167C0 29.6042 16.9167 48.3333 16.9167 48.3333C16.9167 48.3333 33.8333 29.6042 33.8333 16.9167C33.8333 12.4301 32.051 8.12727 28.8786 4.95478C25.7061 1.78229 21.4032 0 16.9167 0Z" fill="#F63333"/>
</svg>
